<svg width="18" height="19" viewBox="0 0 18 19" fill="none" xmlns="http://www.w3.org/2000/svg">
<path d="M1.05446 5.32901C3.48171 0.844491 9.10818 -0.729098 13.4966 1.80455L14.3929 0.252127C14.6182 -0.138145 15.1967 -0.0585563 15.3053 0.374194L16.3367 4.1959C16.41 4.4695 16.2547 4.73835 15.9811 4.81166L12.1558 5.82934C11.7267 5.95164 11.3735 5.48178 11.5938 5.10018L12.4951 3.53909C9.11278 1.58628 4.78858 2.76694 2.86912 6.19168C1.04981 9.44297 2.19711 13.7248 5.39833 15.6308C8.76433 17.632 13.1082 16.4974 15.061 13.115C15.8672 11.7187 16.1362 10.1511 15.9205 8.66205C15.852 8.15991 16.1584 7.68926 16.6509 7.5573C17.2341 7.40836 17.8262 7.78488 17.9117 8.37776C18.1827 10.2919 17.837 12.3125 16.7956 14.1165C14.2669 18.4962 8.60245 19.9553 4.25813 17.2853C0.255715 14.8241 -1.18117 9.46161 1.05446 5.32901Z" fill="#737373"/>
</svg>
