<svg width="20" height="18" viewBox="0 0 20 18" fill="none" xmlns="http://www.w3.org/2000/svg">
<path d="M16.9996 2.99995H15.7196L15.3996 1.99997C15.1922 1.41322 14.8074 0.905503 14.2986 0.54717C13.7897 0.188836 13.182 -0.00237684 12.5597 2.23031e-05H7.43982C6.81138 0.00119799 6.19918 0.199701 5.68963 0.567514C5.18007 0.935327 4.79889 1.45388 4.59989 2.04997L4.2799 3.04995H2.99993C2.2043 3.04995 1.44125 3.36601 0.878658 3.92861C0.316063 4.4912 0 5.25424 0 6.04987V14.0497C0 14.8453 0.316063 15.6084 0.878658 16.1709C1.44125 16.7335 2.2043 17.0496 2.99993 17.0496H16.9996C17.7952 17.0496 18.5583 16.7335 19.1209 16.1709C19.6834 15.6084 19.9995 14.8453 19.9995 14.0497V6.04987C20.0061 5.65173 19.9335 5.25625 19.7857 4.88649C19.6379 4.51673 19.418 4.1801 19.1387 3.89621C18.8595 3.61232 18.5265 3.38687 18.1593 3.23299C17.792 3.07911 17.3978 2.99989 16.9996 2.99995ZM17.9996 13.9997C17.9996 14.2649 17.8942 14.5192 17.7067 14.7068C17.5191 14.8943 17.2648 14.9997 16.9996 14.9997H2.99993C2.73472 14.9997 2.48037 14.8943 2.29284 14.7068C2.10531 14.5192 1.99995 14.2649 1.99995 13.9997V5.99988C1.99995 5.73467 2.10531 5.48032 2.29284 5.29279C2.48037 5.10525 2.73472 4.9999 2.99993 4.9999H4.99988C5.21794 5.01128 5.43373 4.95098 5.6143 4.82819C5.79486 4.70541 5.93028 4.52689 5.99985 4.31992L6.53984 2.67996C6.60692 2.48134 6.73473 2.30883 6.9052 2.18681C7.07567 2.06479 7.28018 1.99943 7.48982 1.99997H12.6097C12.8193 1.99943 13.0238 2.06479 13.1943 2.18681C13.3648 2.30883 13.4926 2.48134 13.5597 2.67996L14.0997 4.31992C14.1638 4.51066 14.2841 4.6776 14.4446 4.79892C14.6052 4.92023 14.7986 4.99028 14.9996 4.9999H16.9996C17.2648 4.9999 17.5191 5.10525 17.7067 5.29279C17.8942 5.48032 17.9996 5.73467 17.9996 5.99988V13.9997ZM9.99976 4.9999C9.20865 4.9999 8.43531 5.23449 7.77753 5.67401C7.11975 6.11352 6.60707 6.73822 6.30433 7.46911C6.00158 8.19999 5.92237 9.00424 6.07671 9.78014C6.23105 10.556 6.612 11.2688 7.1714 11.8282C7.73079 12.3876 8.44351 12.7685 9.21941 12.9228C9.99532 13.0772 10.7996 12.998 11.5305 12.6952C12.2613 12.3925 12.886 11.8798 13.3256 11.222C13.7651 10.5642 13.9997 9.79091 13.9997 8.9998C13.9997 7.93896 13.5782 6.92157 12.8281 6.17144C12.078 5.42132 11.0606 4.9999 9.99976 4.9999ZM9.99976 10.9998C9.6042 10.9998 9.21753 10.8825 8.88864 10.6627C8.55975 10.4429 8.30341 10.1306 8.15204 9.76515C8.00067 9.39971 7.96106 8.99758 8.03823 8.60963C8.1154 8.22168 8.30588 7.86532 8.58558 7.58562C8.86528 7.30593 9.22163 7.11545 9.60958 7.03828C9.99754 6.96111 10.3997 7.00072 10.7651 7.15209C11.1305 7.30346 11.4429 7.5598 11.6627 7.88869C11.8824 8.21758 11.9997 8.60425 11.9997 8.9998C11.9997 9.53022 11.789 10.0389 11.4139 10.414C11.0389 10.789 10.5302 10.9998 9.99976 10.9998Z" fill="#424C5D"/>
</svg>
