<svg width="18" height="19" viewBox="0 0 18 19" fill="none" xmlns="http://www.w3.org/2000/svg">
<path d="M8.4 0.0195022C3.62 0.329502 0 4.5195 0 9.3095V15.9995C0 17.6595 1.34 18.9995 3 18.9995H4C5.1 18.9995 6 18.0995 6 16.9995V12.9995C6 11.8995 5.1 10.9995 4 10.9995H2V9.2895C2 5.4495 4.96 2.1095 8.79 1.9995C12.76 1.8895 16 5.0595 16 8.9995V10.9995H14C12.9 10.9995 12 11.8995 12 12.9995V16.9995C12 18.0995 12.9 18.9995 14 18.9995H15C16.66 18.9995 18 17.6595 18 15.9995V8.9995C18 3.8295 13.64 -0.320498 8.4 0.0195022Z" fill="#737373"/>
</svg>
